HIERARCHY
ROOT Hips
{
    OFFSET 0.000000 0.000000 0.000000
    CHANNELS 6 Xposition Yposition Zposition Zrotation Xrotation Yrotation
    JOINT Spine
    {
        OFFSET -0.000000 7.236184 0.000000
        CHANNELS 3 Zrotation Xrotation Yrotation
        JOINT Spine1
        {
            OFFSET -0.000000 20.420147 0.000000
            CHANNELS 3 Zrotation Xrotation Yrotation
            JOINT Neck
            {
                OFFSET -0.000000 20.336288 1.848754
                CHANNELS 3 Zrotation Xrotation Yrotation
                JOINT Head
                {
                    OFFSET -0.000000 12.354461 -1.764923
                    CHANNELS 3 Zrotation Xrotation Yrotation
                    End Site
                    {
                        OFFSET -0.000000 22.061537 0.000000
                    }
                }
            }
            JOINT LeftShoulder
            {
                OFFSET 3.573296 18.396038 -0.314103
                CHANNELS 3 Zrotation Xrotation Yrotation
                JOINT LeftArm
                {
                    OFFSET 10.880760 0.000000 0.000000
                    CHANNELS 3 Zrotation Xrotation Yrotation
                    JOINT LeftForeArm
                    {
                        OFFSET 27.185530 0.000000 0.000000
                        CHANNELS 3 Zrotation Xrotation Yrotation
                        JOINT LeftHand
                        {
                            OFFSET 27.825975 0.000000 0.000000
                            CHANNELS 3 Zrotation Xrotation Yrotation
                            End Site
                            {
                                OFFSET 13.236923 0.000000 0.000000
                            }
                        }
                    }
                }
            }
            JOINT RightShoulder
            {
                OFFSET -3.474926 18.396038 -0.314103
                CHANNELS 3 Zrotation Xrotation Yrotation
                JOINT RightArm
                {
                    OFFSET -10.880760 0.000000 0.000000
                    CHANNELS 3 Zrotation Xrotation Yrotation
                    JOINT RightForeArm
                    {
                        OFFSET -27.185530 0.000000 0.000000
                        CHANNELS 3 Zrotation Xrotation Yrotation
                        JOINT RightHand
                        {
                            OFFSET -27.825975 0.000000 0.000000
                            CHANNELS 3 Zrotation Xrotation Yrotation
                            End Site
                            {
                                OFFSET -13.236923 0.000000 0.000000
                            }
                        }
                    }
                }
            }
        }
    }
    JOINT LeftUpLeg
    {
        OFFSET 8.824615 0.000000 0.000000
        CHANNELS 3 Zrotation Xrotation Yrotation
        JOINT LeftLeg
        {
            OFFSET -0.000000 -35.111282 0.000000
            CHANNELS 3 Zrotation Xrotation Yrotation
            JOINT LeftFoot
            {
                OFFSET -0.000000 -42.324711 0.000000
                CHANNELS 3 Zrotation Xrotation Yrotation
                JOINT LeftToeBase
                {
                    OFFSET -0.000000 -5.735999 13.236923
                    CHANNELS 3 Zrotation Xrotation Yrotation
                    End Site
                    {
                        OFFSET -0.000000 0.000000 3.529846
                    }
                }
            }
        }
    }
    JOINT RightUpLeg
    {
        OFFSET -8.824615 0.000000 0.000000
        CHANNELS 3 Zrotation Xrotation Yrotation
        JOINT RightLeg
        {
            OFFSET -0.000000 -35.111282 0.000000
            CHANNELS 3 Zrotation Xrotation Yrotation
            JOINT RightFoot
            {
                OFFSET -0.000000 -42.324711 0.000000
                CHANNELS 3 Zrotation Xrotation Yrotation
                JOINT RightToeBase
                {
                    OFFSET -0.000000 -5.735999 13.236923
                    CHANNELS 3 Zrotation Xrotation Yrotation
                    End Site
                    {
                        OFFSET -0.000000 0.000000 3.529846
                    }
                }
            }
        }
    }
}
MOTION
Frames:    10
Frame Time:    0.008333
-1.291495    82.520851    98.783897    1.742755    -10.288775    -177.246826    -1.633962    -13.914240    -0.844453    3.581981    2.019576    -0.708256    3.712669    6.034973    -3.285351    7.306293    -3.201060    -2.527394    0.463191    16.111870    0.184460    -55.322159    33.111000    -28.877634    -1.776851    -2.385104    -11.970876    17.263655    -2.065241    3.335588    6.489178    17.577461    -8.298546    48.882118    37.040104    24.566223    -0.924325    -8.308450    16.287003    -16.127333    -7.669619    -3.618665    11.988079    -18.847391    0.100988    -0.825570    25.042299    7.503223    -10.958139    -8.346881    -17.781723    -0.252198    -1.962702    0.280558    -12.773954    -14.446049    -7.019802    7.297137    16.481474    -3.788524    10.418541    -2.541359    -1.689341    -2.022076    -1.666042    2.192069    
-1.739413    82.547722    98.852859    1.820343    -10.294325    -177.697510    -1.597470    -13.802126    -0.918267    3.680446    1.975403    -0.788355    3.872622    6.016628    -3.265907    7.408947    -3.319633    -2.497939    0.563033    15.968758    0.002730    -54.801689    32.980553    -29.463758    -1.648234    -2.460953    -12.179222    17.457848    -2.135264    3.267756    6.547105    17.584469    -8.341481    48.956402    36.684971    24.458714    -0.908047    -8.369679    16.063581    -16.140387    -7.728809    -3.659905    11.809219    -18.484097    0.252670    -0.832160    24.644478    7.432470    -10.709535    -8.807908    -17.422592    -0.213008    -1.739845    0.236863    -13.341380    -15.439515    -7.037664    7.746383    17.849625    -4.092945    10.890038    -2.023035    -1.515319    -1.966789    -1.969829    2.133052    
-2.189317    82.581200    98.931160    1.899687    -10.304703    -178.170349    -1.555842    -13.680514    -0.986754    3.784642    1.931656    -0.863825    4.021490    5.997198    -3.241924    7.508492    -3.439694    -2.463038    0.657013    15.817838    -0.176696    -54.293968    32.824577    -30.021166    -1.512400    -2.549215    -12.405643    17.647343    -2.216681    3.202490    6.592388    17.588301    -8.377926    49.028671    36.336376    24.356041    -0.891721    -8.413135    15.843539    -16.146511    -7.771038    -3.696330    11.640476    -18.143827    0.396333    -0.855253    24.264467    7.406924    -10.464617    -9.227132    -17.078611    -0.176088    -1.530501    0.195733    -13.945408    -16.517879    -7.091006    8.246724    19.318714    -4.421867    11.374739    -1.477308    -1.360171    -1.900361    -2.273393    2.061903    
-2.633028    82.620491    99.016762    1.980522    -10.319211    -178.658157    -1.503832    -13.552029    -1.048534    3.880934    1.889010    -0.933842    4.168148    5.978891    -3.211668    7.597695    -3.559468    -2.423022    0.753321    15.663487    -0.348784    -53.812668    32.646095    -30.539627    -1.370893    -2.648037    -12.646207    17.828979    -2.307475    3.141378    6.633979    17.587881    -8.404186    49.096886    35.999763    24.255205    -0.875446    -8.438251    15.632582    -16.145557    -7.795725    -3.727495    11.485302    -17.829235    0.530683    -0.892289    23.906242    7.426459    -10.226813    -9.600036    -16.755281    -0.142157    -1.338533    0.157960    -14.575064    -17.661221    -7.186491    8.789086    20.861549    -4.769307    11.862617    -0.918163    -1.229764    -1.823126    -2.566628    1.978935    
-3.071001    82.665306    99.108925    2.063908    -10.337164    -179.162018    -1.445222    -13.415713    -1.104525    3.980161    1.844555    -0.998633    4.304211    5.964954    -3.175631    7.678609    -3.679379    -2.377068    0.845012    15.506838    -0.515426    -53.353508    32.448895    -31.017496    -1.223787    -2.759503    -12.904522    18.002754    -2.409354    3.086107    6.665006    17.585875    -8.421537    49.166115    35.671429    24.155430    -0.859501    -8.443996    15.429410    -16.138351    -7.801849    -3.752911    11.343581    -17.536442    0.657610    -0.940873    23.566936    7.488846    -9.995004    -9.930944    -16.451082    -0.111037    -1.163612    0.123340    -15.230830    -18.868269    -7.331187    9.372979    22.477240    -5.135137    12.352026    -0.350729    -1.127018    -1.733971    -2.845625    1.882918    
-3.507637    82.715820    99.207870    2.151566    -10.358023    -179.687485    -1.376135    -13.271854    -1.155444    4.076790    1.801523    -1.059479    4.437921    5.953047    -3.132043    7.748020    -3.799361    -2.324855    0.938853    15.345441    -0.676039    -52.912716    32.233608    -31.461042    -1.068592    -2.884982    -13.183772    18.170744    -2.523327    3.036206    6.691446    17.579462    -8.429801    49.237343    35.348278    24.052841    -0.843968    -8.431479    15.233263    -16.125296    -7.790394    -3.773459    11.214064    -17.259594    0.780149    -0.999593    23.241308    7.592219    -9.765292    -10.226624    -16.161303    -0.082495    -1.003359    0.091610    -15.919875    -20.149450    -7.534650    10.003224    24.180807    -5.523340    12.845222    0.224562    -1.053848    -1.631311    -3.108855    1.772118    
-3.934997    82.770836    99.311073    2.242852    -10.380518    179.775116    -1.298460    -13.123145    -1.200966    4.171933    1.760788    -1.115708    4.564994    5.944350    -3.081616    7.804106    -3.916830    -2.267167    1.031749    15.182616    -0.828051    -52.496502    32.006794    -31.861738    -0.907700    -3.022959    -13.480872    18.330175    -2.647734    2.993252    6.711722    17.569426    -8.429368    49.311550    35.034492    23.948057    -0.829279    -8.401584    15.047591    -16.107130    -7.762193    -3.788834    11.099243    -17.001064    0.898008    -1.065250    22.933989    7.731077    -9.540708    -10.485022    -15.889392    -0.056994    -0.859605    0.063274    -16.630661    -21.479006    -7.800888    10.667377    25.939850    -5.927532    13.329746    0.790504    -1.014151    -1.516279    -3.348581    1.647733    
-4.354408    82.830086    99.417992    2.338551    -10.403932    179.224945    -1.212296    -12.969638    -1.241709    4.266723    1.722843    -1.168070    4.685718    5.939108    -3.024244    7.846119    -4.031596    -2.204076    1.123650    15.017937    -0.971984    -52.101841    31.770340    -32.221504    -0.740391    -3.173907    -13.797520    18.482115    -2.782849    2.957125    6.726207    17.555998    -8.421572    49.390755    34.727615    23.839823    -0.815372    -8.355411    14.871854    -16.084404    -7.718297    -3.799554    10.998283    -16.757576    1.013388    -1.135965    22.642811    7.901381    -9.319100    -10.710885    -15.632347    -0.034161    -0.730314    0.037916    -17.366356    -22.856785    -8.136765    11.365433    27.756569    -6.349434    13.802968    1.341519    -1.008950    -1.388714    -3.563899    1.509585    
-4.764299    82.892975    99.527435    2.439064    -10.427441    178.665314    -1.117792    -12.812284    -1.278157    4.361097    1.688213    -1.216919    4.799870    5.937306    -2.960209    7.872704    -4.142210    -2.136235    1.214090    14.853020    -1.106762    -51.728237    31.527012    -32.540920    -0.566919    -3.336952    -14.133083    18.626833    -2.927679    2.927864    6.735436    17.539711    -8.407511    49.475620    34.428249    23.727880    -0.802361    -8.294967    14.706656    -16.057615    -7.660601    -3.806016    10.911356    -16.528030    1.127492    -1.209418    22.368134    8.097659    -9.099946    -10.906933    -15.388821    -0.013873    -0.614698    0.015394    -18.125723    -24.273439    -8.546447    12.093620    29.621172    -6.789438    14.258392    1.868816    -1.038235    -1.249677    -3.752768    1.358826    
-5.166831    82.959442    99.639252    2.545444    -10.450528    178.094757    -1.014322    -12.650856    -1.311083    4.455432    1.657387    -1.263094    4.908356    5.939198    -2.889341    7.883179    -4.248827    -2.063670    1.303506    14.687480    -1.233058    -51.372826    31.276583    -32.822575    -0.386075    -3.512536    -14.489401    18.765995    -3.082376    2.904379    6.740548    17.521126    -8.388363    49.567036    34.133686    23.611393    -0.789988    -8.221432    14.550988    -16.026670    -7.590302    -3.808556    10.837467    -16.309660    1.242294    -1.284182    22.108139    8.316029    -8.880674    -11.077630    -15.155046    0.004117    -0.510220    -0.004568    -18.915070    -25.732212    -9.036972    12.855199    31.540726    -7.252074    14.693561    2.368843    -1.101336    -1.099646    -3.916506    1.195981    
